<svg xmlns="http://www.w3.org/2000/svg" width="512" height="512" viewBox="0 0 512 512">
  <rect width="512" height="512" fill="#ffffff" />
  <g transform="translate(156, 156)">
    <g transform="scale(8)">
      <path fill="#4f46e5" d="M 12.5,1 C 7.26,1 3,5.26 3,10.5 3,15.74 7.26,20 12.5,20 17.74,20 22,15.74 22,10.5 22,5.26 17.74,1 12.5,1 Z M 12.5,3 C 16.64,3 20,6.36 20,10.5 20,14.64 16.64,18 12.5,18 8.36,18 5,14.64 5,10.5 5,6.36 8.36,3 12.5,3 Z" />
      <path fill="#4f46e5" d="M 11,6 V 12 H 17 V 10 H 13 V 6 Z" />
      <circle cx="15" cy="5" r="2" fill="#4f46e5" />
    </g>
  </g>
  <text x="256" y="400" font-family="Inter, sans-serif" font-size="48" text-anchor="middle" fill="#4f46e5" font-weight="600">Cost Comrade</text>
</svg> 